<svg xmlns="http://www.w3.org/2000/svg" xmlns:xlink="http://www.w3.org/1999/xlink" viewBox="0 0 231.78 231.78"><defs><style>.cls-1{opacity:0.5;}.cls-2{fill:url(#linear-gradient);}.cls-3{fill:#f5f5f5;}.cls-4{fill:#00c5cf;}.cls-5{fill:#333;}.cls-6{opacity:0.1;isolation:isolate;}.cls-7{fill:#fdb797;}</style><linearGradient id="linear-gradient" x1="115.89" y1="24.54" x2="115.89" y2="256.32" gradientTransform="matrix(1, 0, 0, -1, 0, 256.32)" gradientUnits="userSpaceOnUse"><stop offset="0" stop-color="gray" stop-opacity="0.25"/><stop offset="0.54" stop-color="gray" stop-opacity="0.12"/><stop offset="1" stop-color="gray" stop-opacity="0.1"/></linearGradient></defs><title>Asset 1</title><g id="Layer_2" data-name="Layer 2"><g id="Layer_1-2" data-name="Layer 1"><g class="cls-1"><circle class="cls-2" cx="115.89" cy="115.89" r="115.89"/></g><circle class="cls-3" cx="116.11" cy="115.15" r="113.44"/><path class="cls-4" d="M116.21,229a113,113,0,0,0,62.35-18.66c-4.18-22.84-20.09-24.15-20.09-24.15H70.72s-15,1.23-19.7,22.25A112.92,112.92,0,0,0,116.21,229Z"/><circle class="cls-5" cx="115.01" cy="112.76" r="54.76"/><path class="cls-6" d="M97.34,158.37h35.09v28.07A17.54,17.54,0,0,1,114.89,204h0a17.54,17.54,0,0,1-17.54-17.54h0V158.37Z"/><path class="cls-7" d="M100.69,157.07h28.39a3.35,3.35,0,0,1,3.35,3.35h0v24.74a17.54,17.54,0,0,1-17.54,17.54h0a17.54,17.54,0,0,1-17.55-17.53h0V160.41a3.35,3.35,0,0,1,3.35-3.35h0Z"/><path class="cls-6" d="M97.41,171.62a50.49,50.49,0,0,0,35.09.1v-4.34H97.41Z"/><circle class="cls-7" cx="115.01" cy="123.68" r="50.29"/><path class="cls-6" d="M79.2,77.93s21.19,43,81,18L146.28,74.1l-24.67-8.86Z"/><path class="cls-5" d="M79.2,77.3s21.19,43,81,18L146.28,73.47l-24.67-8.86Z"/><path class="cls-5" d="M79,74.38a29.1,29.1,0,0,1,7.2-11.71c9.89-9.78,26.11-11.84,34.43-23a6.5,6.5,0,0,1-2.42,8.88,6.36,6.36,0,0,1-.58.3c8-.05,17.21-.75,21.71-7.31a14.91,14.91,0,0,1-2.51,15.74c7.06.32,14.6,5.11,15.06,12.17.3,4.7-2.64,9.15-6.51,11.85s-8.54,3.93-13.14,5C118.83,89.23,70.25,101.64,79,74.38Z"/><ellipse class="cls-7" cx="64.7" cy="123.63" rx="4.68" ry="8.77"/><ellipse class="cls-7" cx="165.29" cy="123.63" rx="4.68" ry="8.77"/></g></g></svg>