<?xml version="1.0"?>
<svg xmlns="http://www.w3.org/2000/svg" xmlns:xlink="http://www.w3.org/1999/xlink" version="1.1" id="Capa_1" x="0px" y="0px" viewBox="0 0 509.3 509.3" style="enable-background:new 0 0 509.3 509.3;" xml:space="preserve" width="512px" height="512px" class=""><g><path style="fill:#F0CC53" d="M198.126,336.7L198.126,336.7c-1.8-15.6-13.8-20.7-13.8-20.7l4-9.7c3.6-8.6,3-18.4-2-26.3  c-5.4-8.7-14.9-19.1-31.4-26.1c-32.8-13.8-58.7,5.2-58.7,5.2l2.1-6.3c6.8-20.3,2.8-42.8-10.9-59.3c-3.8-4.6-6.7-7-6.7-7  c-3.7-4-8-7.3-12.7-9.6l0.2-0.3c22.9-95.6,109-166.7,211.7-166.7c120.2,0,217.7,97.5,217.7,217.7s-97.5,217.7-217.7,217.7  c-33.5,0-65.3-7.6-93.7-21.2l-0.4-0.1c0.5-1.8,0.7-3.5,0.7-5.2c0-8.9-5.7-16.4-5.7-16.4c19-22.4,3.5-43.2,3.5-43.2s0.3-0.1,0.7-0.4  C188.126,357.2,199.626,350.2,198.126,336.7z M429.826,188.8c0-26.7-21.7-48.4-48.4-48.4c-26.7,0-48.4,21.7-48.4,48.4  s21.6,48.4,48.4,48.4C408.126,237.2,429.826,215.6,429.826,188.8z M226.626,188.8c0-26.7-21.7-48.4-48.4-48.4s-48.4,21.7-48.4,48.4  s21.6,48.4,48.4,48.4C204.926,237.2,226.626,215.6,226.626,188.8z" data-original="#ED664C" class="" data-old_color="#ED664C"/><g>
	<path style="fill:#FFFFFF" d="M391.126,155c10.7,0,19.3,8.7,19.3,19.3c0,10.7-8.7,19.4-19.3,19.4c-10.7,0-19.4-8.7-19.4-19.4   S380.426,155,391.126,155z" data-original="#FFFFFF" class=""/>
	<path style="fill:#FFFFFF" d="M357.226,198.5c5.3,0,9.7,4.4,9.7,9.7s-4.4,9.6-9.7,9.6s-9.6-4.3-9.6-9.6   S351.926,198.5,357.226,198.5z" data-original="#FFFFFF" class=""/>
	<path style="fill:#FFFFFF" d="M187.926,155c10.7,0,19.3,8.7,19.3,19.3c0,10.7-8.7,19.4-19.3,19.4c-10.7,0-19.4-8.7-19.4-19.4   C168.526,163.6,177.226,155,187.926,155z" data-original="#FFFFFF" class=""/>
</g><path style="fill:#F0CC53" d="M198.126,336.7L198.126,336.7c1.5,13.6-10.1,20.5-13.1,22.1c-0.5,0.3-0.7,0.4-0.7,0.4  s15.6,20.7-3.5,43.2c0,0,5.7,7.5,5.7,16.4c0,1.7-0.2,3.5-0.7,5.2c-1.9,6.7-7.8,13.5-22.2,18c-4.4,0.9-5.3,1.3-11.9,1  c-5.9-0.3-13.8-1.8-12.1-12.1c0,0,4.4-11.8,2.3-11.1c-5.9,1.8-10.8,5.9-13.5,11.5l-2.7,5.6c0,0-3.3,20-15.1,25.7l-1.1,0.6  c-9.6,5.3-20.8,6.9-31.6,4.5l-3.2-0.7c-11.8-2.7-22.3-9.2-30.1-18.5c-1.6-1.9-3.2-3.8-4.8-5.8c-16.1-19.4-25.8-43.3-27.7-68.7  l-0.1-0.8c-1.4-18.4,1.7-36.8,8.9-53.7l6.2-14.4c2.3-5.4,5.3-10.5,8.8-15.2c12.7-17,15.1-39.4,6.4-58.7l-3.1-6.7l-15.9-28.4  c-1.3-2.3-1.9-4.8-1.9-7.2c0-5.9,3.5-11.5,9.5-13.7c12.4-4.8,25.8-4,37.1,1.7c4.7,2.3,9,5.5,12.7,9.6c0,0,2.9,2.4,6.7,7  c13.7,16.4,17.7,38.9,10.9,59.3l-2.1,6.3c0,0,25.9-19,58.7-5.2c16.5,7,26,17.5,31.4,26.1c4.9,7.9,5.5,17.8,2,26.3l-4,9.7  C184.326,316,196.326,321.2,198.126,336.7z" data-original="#FDC75B" class="active-path" data-old_color="#FDC75B"/><path style="fill:#FFFFFF" d="M154.026,198.5c5.3,0,9.7,4.4,9.7,9.7s-4.4,9.6-9.7,9.6s-9.6-4.3-9.6-9.6  S148.726,198.5,154.026,198.5z" data-original="#FFFFFF" class=""/><path d="M381.426,237.2c26.7,0,48.4-21.7,48.4-48.4s-21.7-48.4-48.4-48.4c-26.7,0-48.4,21.7-48.4,48.4  C333.126,215.6,354.726,237.2,381.426,237.2z M391.126,155c10.7,0,19.3,8.7,19.3,19.3c0,10.7-8.7,19.4-19.3,19.4  c-10.7,0-19.4-8.7-19.4-19.4S380.426,155,391.126,155z M357.226,198.5c5.3,0,9.7,4.4,9.7,9.7s-4.4,9.6-9.7,9.6  c-5.3,0-9.6-4.3-9.6-9.6S351.926,198.5,357.226,198.5z" data-original="#000000" class="" style="fill:#000000" data-old_color="#000000"/><path d="M129.926,188.8c0,26.7,21.6,48.4,48.4,48.4c26.7,0,48.4-21.7,48.4-48.4s-21.7-48.4-48.4-48.4  C151.526,140.4,129.926,162.1,129.926,188.8z M154.026,217.8c-5.3,0-9.6-4.3-9.6-9.6s4.3-9.7,9.6-9.7s9.7,4.4,9.7,9.7  S159.426,217.8,154.026,217.8z M207.326,174.3c0,10.7-8.7,19.4-19.3,19.4c-10.7,0-19.4-8.7-19.4-19.4s8.7-19.3,19.4-19.3  C198.626,155,207.326,163.6,207.326,174.3z" data-original="#000000" class="" style="fill:#000000" data-old_color="#000000"/><path d="M17.926,301.1l-6.2,14.4c-7.9,18.3-11.2,38.4-9.7,58.3v0.8c0,0.1,0,0.1,0,0.2c2.1,27.5,12.5,53.2,30,74.3  c1.3,1.6,2.6,3.2,3.9,4.7l1,1.2c9,10.9,21.7,18.7,35.5,21.9l3.2,0.7c4,0.9,8.1,1.4,12.1,1.4c9.2,0,18.3-2.3,26.5-6.9  c0,0,0.1,0,0.1-0.1l0.8-0.5c10.7-5.4,16-17.4,18.4-25.4c5,5.8,12.3,6.8,17.6,7.1c6.8,0.3,9-0.1,13-0.9l1.4-0.3  c0.4-0.1,0.7-0.2,1.1-0.3c10.7-3.4,18.6-8.3,23.6-14.7c28.3,12.2,58.4,18.4,89.7,18.4c60.8,0,118-23.7,161-66.7s66.7-100.2,66.7-161  s-23.7-118-66.7-161S340.726,0,279.926,0c-52.2,0-101.3,17.2-142,49.7c-36.7,29.3-63.6,69.5-76.6,114.2c-11-2.8-22.9-2.1-33.9,2.1  c-9.7,3.7-15.9,12.8-15.9,23.1c0,4.2,1.1,8.4,3.2,12.1l15.7,28l2.9,6.4c7.2,16,5.2,34.6-5.3,48.6  C23.926,289.1,20.626,294.9,17.926,301.1z M189.426,337.7L189.426,337.7L189.426,337.7L189.426,337.7z M150.326,65.1  c37.1-29.6,81.9-45.3,129.5-45.3c114.5,0,207.7,93.2,207.7,207.7s-93.2,207.7-207.7,207.7c-29.1,0-57.1-5.9-83.4-17.4  c-0.2-5.8-1.9-11-3.7-14.8c9.8-15.2,8.5-30.3,4.5-40.7c2.1-1.8,4-4,5.6-6.4c7.6,6.7,16,12.4,25.3,17.1c16,8,33.3,12,51.4,12  c54.8,0,102.4-38.9,113.3-92.5l-19.6-4c-9,44.3-48.4,76.5-93.7,76.5c-15,0-29.3-3.3-42.5-9.9c-11.4-5.7-21.3-13.5-29.6-22.9  c-1.8-9-6.3-15.5-11-19.9l1-2.4c4.9-11.6,3.9-24.9-2.7-35.5c-8.2-13.2-20.6-23.5-36-30.1c-18.8-7.9-35.6-6.5-47.8-3.1  c2.3-19.4-3.3-39.3-15.9-54.4c-3.4-4.1-6.3-6.7-7.4-7.8c-2.5-2.6-5.2-5-8.1-7C91.126,130.3,116.126,92.5,150.326,65.1z   M198.126,336.7L198.126,336.7L198.126,336.7L198.126,336.7L198.126,336.7L198.126,336.7L198.126,336.7z M36.226,309.1  c2.1-4.7,4.6-9.2,7.6-13.2c14.9-19.9,17.8-46.3,7.5-68.9l-3.1-6.7c-0.1-0.3-0.2-0.5-0.4-0.7l-15.9-28.4c-0.4-0.7-0.6-1.5-0.6-2.3  c0-1.5,0.8-3.5,3.1-4.4c9.6-3.7,20.1-3.2,29,1.3c3.7,1.8,7,4.3,9.8,7.4c0.3,0.3,0.6,0.6,0.9,0.8c0,0,2.4,2.1,5.5,5.8  c11.3,13.6,14.8,32.6,9.1,49.7l-2.1,6.3c-1.4,4.1,0.1,8.7,3.6,11.2c3.5,2.6,8.3,2.6,11.8,0c0.9-0.6,22.1-15.4,49-4.1  c11.7,5,20.7,12.4,26.8,22.2c3.1,5,3.6,11.4,1.3,17.1c-14.3-5.5-35.5-8.1-50.1,1l10.6,17c9.4-5.8,28.8-2,37.4,3.1l1.1,0.7  c0.7,0.5,1.4,0.8,2.2,1.1c1.1,0.5,6.9,3.6,7.9,12.6l0,0c0.4,4-1,6.4-2.8,8.4c-5.8-3.7-13-6.2-20.7-7.2c-13.1-1.6-25.6,1.9-35.3,9.6  l12.5,15.6c10.9-8.8,26.2-5.8,33.3-0.8c0.3,0.6,0.7,1.3,1.2,1.9c0,0,2.6,3.7,3.6,9c1,5.5,0.1,11-2.8,16.2  c-10.3-2.6-23.6-2.9-29.9-2.3l2,19.9c6.4-0.6,19.1,0.4,24.8,2.2c1.1,2.1,2.5,5.4,2.5,8.5c0,0.9-0.1,1.7-0.3,2.4v0.1  c-1.5,5.5-8.9,9-15.1,11c-0.3,0.1-0.7,0.1-1,0.2c-2.8,0.6-3.4,0.7-7.9,0.5c-1.2-0.1-2.1-0.2-2.7-0.3c3.5-9.7,4.3-15.3,0-19.8  c-2.7-2.9-6.8-3.9-10.5-2.8c-8.6,2.6-15.7,8.7-19.6,16.7l-2.7,5.6c-0.4,0.9-0.7,1.8-0.9,2.8c-0.9,5.2-4.6,15.9-9.6,18.3  c-0.2,0.1-0.4,0.2-0.6,0.3l-1,0.6c-7.4,4.1-16.1,5.4-24.4,3.5l-3.2-0.7c-9.6-2.2-18.3-7.6-24.6-15.2l-1-1.2c-1.2-1.5-2.5-3-3.8-4.6  c-14.8-17.9-23.6-39.7-25.5-63v-0.8v-0.1c-1.3-16.7,1.5-33.6,8.1-48.9L36.226,309.1z" data-original="#000000" class="" style="fill:#000000" data-old_color="#000000"/><path d="M162.226,119.3c8.7-4.1,18.5-4.5,27.5-1.2l6.8-18.8c-14-5.1-29.2-4.4-42.8,1.9s-23.8,17.5-28.9,31.6l18.8,6.8  C146.926,130.6,153.526,123.4,162.226,119.3z" data-original="#000000" class="" style="fill:#000000" data-old_color="#000000"/><path d="M416.226,139.4l18.7-7c-10.8-28.9-43.2-43.5-72.1-32.7l7,18.7C388.426,111.4,409.226,120.9,416.226,139.4z" data-original="#000000" class="" style="fill:#000000" data-old_color="#000000"/><path d="M66.226,486c-26-8.2-40.2-28.7-46.3-40.3l-17.7,9.4c7.6,14.2,25.1,39.6,58,49.9c10,3.1,19.5,4.3,28.3,4.3  c11.4,0,21.4-2,29-4.3l-5.7-19.2C101.126,489.1,84.526,491.7,66.226,486z" data-original="#000000" class="" style="fill:#000000" data-old_color="#000000"/></g> </svg>
